2.2Hz3min_grf.mot
version=1
nRows=17
nColumns 19
inDegrees=yes
endheader
time	1_ground_force_vx	1_ground_force_vy	1_ground_force_vz	1_ground_force_px	1_ground_force_py	1_ground_force_pz	1_ground_torque_x	1_ground_torque_y	1_ground_torque_z	2_ground_force_vx	2_ground_force_vy	2_ground_force_vz	2_ground_force_px	2_ground_force_py	2_ground_force_pz	2_ground_torque_x	2_ground_torque_y	2_ground_torque_z
            2.502500	            3.227303	           84.205735	           -4.553687	           -0.188508	            0.005990	           -0.349128	            0.013934	            0.363559	           -0.019661	            4.315501	           77.331593	            7.923293	           -0.198917	            0.005920	           -0.741120	            0.001599	            0.028659	            0.002936
            2.503000	            2.860675	           82.944001	           -4.604044	           -0.188720	            0.005985	           -0.347902	            0.010875	            0.315318	           -0.017503	            4.230338	           74.938170	            7.680151	           -0.198915	            0.005917	           -0.740134	            0.004084	            0.072338	            0.007414
            2.503500	            2.907986	           81.139387	           -4.153328	           -0.188684	            0.005987	           -0.348349	            0.009576	            0.267181	           -0.013676	            4.323374	           75.122650	            7.680768	           -0.199681	            0.005921	           -0.742155	            0.001146	            0.019921	            0.002037
            2.504000	            2.816318	           80.418504	           -4.202048	           -0.190642	            0.005980	           -0.346859	            0.010445	            0.298256	           -0.015585	            4.243528	           71.256041	            7.432369	           -0.198736	            0.005920	           -0.740860	            0.002425	            0.040713	            0.004247
            2.504500	            2.495715	           77.534584	           -4.305331	           -0.188817	            0.005985	           -0.347959	            0.006260	            0.194489	           -0.010800	            4.152302	           70.520616	            7.007427	           -0.199503	            0.005919	           -0.741188	            0.004638	            0.078767	            0.007827
            2.505000	            2.588869	           75.729979	           -3.854729	           -0.188671	            0.005986	           -0.348144	            0.008580	            0.250997	           -0.012776	            4.438697	           69.048611	            6.955123	           -0.199048	            0.005922	           -0.741679	            0.003638	            0.056591	            0.005700
            2.505500	            2.589360	           74.287460	           -3.769201	           -0.189040	            0.005988	           -0.348609	            0.010275	            0.294790	           -0.014957	            4.304815	           67.206453	            6.995541	           -0.199234	            0.005918	           -0.740855	            0.002416	            0.037719	            0.003926
            2.506000	            2.635939	           72.123691	           -3.641023	           -0.190563	            0.005987	           -0.348463	            0.010345	            0.283055	           -0.014289	            4.219693	           64.812681	            6.846254	           -0.199533	            0.005911	           -0.739121	            0.005164	            0.079319	            0.008379
            2.506500	            2.636445	           71.221773	           -3.507320	           -0.188458	            0.005989	           -0.348784	            0.009746	            0.263268	           -0.012965	            4.363319	           63.894455	            6.279772	           -0.199599	            0.005920	           -0.741610	            0.003359	            0.049184	            0.004834
            2.507000	            2.453582	           69.058353	           -3.470284	           -0.189601	            0.005989	           -0.348964	            0.009971	            0.280637	           -0.014102	            4.371171	           61.685680	            5.990319	           -0.200287	            0.005918	           -0.741943	            0.004670	            0.065907	            0.006400
            2.507500	            2.178934	           67.435712	           -3.430702	           -0.188751	            0.005994	           -0.350110	            0.007979	            0.246940	           -0.012563	            4.423379	           60.212328	            6.078899	           -0.199751	            0.005915	           -0.740375	            0.001665	            0.022670	            0.002289
            2.508000	            2.180339	           64.730154	           -3.075449	           -0.188351	            0.005990	           -0.349189	            0.008443	            0.250666	           -0.011910	            4.238515	           59.476062	            5.794781	           -0.201891	            0.005914	           -0.742372	            0.001991	            0.027939	            0.002722
            2.508500	            2.180195	           63.649150	           -3.217655	           -0.186706	            0.005988	           -0.348533	            0.007812	            0.228064	           -0.011529	            4.388328	           56.898828	            5.691667	           -0.199834	            0.005916	           -0.740890	            0.001291	            0.016739	            0.001674
            2.509000	            2.272258	           62.206846	           -3.178210	           -0.188878	            0.005984	           -0.347630	            0.008582	            0.234939	           -0.012003	            4.159272	           55.425799	            5.404941	           -0.202320	            0.005906	           -0.740499	           -0.001025	           -0.013661	           -0.001332
            2.509500	            2.044202	           60.222503	           -2.865153	           -0.189759	            0.005992	           -0.349506	            0.008905	            0.262331	           -0.012481	            4.307756	           53.216862	            5.303140	           -0.199708	            0.005917	           -0.740825	            0.001102	            0.013609	            0.001356
            2.510000	            2.045080	           60.401196	           -2.497532	           -0.189292	            0.005973	           -0.345243	            0.008456	            0.249751	           -0.010327	            4.450800	           52.482115	            4.925028	           -0.200799	            0.005920	           -0.742991	            0.006640	            0.078292	            0.007347
            2.510500	            1.907768	           57.337242	           -2.647899	           -0.187719	            0.005996	           -0.350514	            0.007266	            0.218381	           -0.010085	            4.224361	           50.272828	            4.541818	           -0.200466	            0.005912	           -0.740196	            0.003281	            0.039046	            0.003528
